#Comment line ignore any data following # character 
#Hierarchical Translation and Rotation (.htr) file 
[Header]	
#Header keywords are followed by a single value 
FileType HTR		#Single word string
DataType HTRS		#Translation followed by rotation and scale data
FileVersion 1		#integer
NumSegments 64		#integer
NumFrames 3		#integer
DataFrameRate 30		#integer, data frame rate in this file
EulerRotationOrder ZYX
CalibrationUnits mm
RotationUnits Degrees
GlobalAxisofGravity Y
BoneLengthAxis Y
ScaleFactor 1.00
[SegmentNames&Hierarchy]
#CHILD	PARENT
Pinger_Root GLOBAL
Pelvis Pinger_Root
L_Hip Pelvis
R_Hip Pelvis
Rear_Leg01 Pelvis
Spine1 Pelvis
L_Leg01 L_Hip
L_Leg02 L_Leg01
L_Leg03 L_Leg02
L_Foot L_Leg03
L_Toe1_01 L_Foot
L_Toe2_01 L_Foot
L_Toe3_01 L_Foot
planeAlignerLeft L_Foot
L_Toe1_02 L_Toe1_01
L_Toe1_03 L_Toe1_02
L_Toe2_02 L_Toe2_01
L_Toe2_03 L_Toe2_02
L_Toe3_02 L_Toe3_01
L_Toe3_03 L_Toe3_02
planeLockWeightLeft planeAlignerLeft
R_Leg01 R_Hip
R_Leg02 R_Leg01
R_Leg03 R_Leg02
R_Foot R_Leg03
planeAlignerRight R_Foot
R_Toe1_01 R_Foot
R_Toe2_01 R_Foot
R_Toe3_01 R_Foot
planeLockWeightRight planeAlignerRight
R_Toe1_02 R_Toe1_01
R_Toe1_03 R_Toe1_02
R_Toe2_02 R_Toe2_01
R_Toe2_03 R_Toe2_02
R_Toe3_02 R_Toe3_01
R_Toe3_03 R_Toe3_02
Rear_Leg02 Rear_Leg01
Rear_Leg03 Rear_Leg02
Rear_Leg04 Rear_Leg03
Rear_Foot Rear_Leg04
planeAlignerCenter Rear_Foot
Rear_Toe1_01 Rear_Foot
Rear_Toe2_01 Rear_Foot
Rear_Toe3_01 Rear_Foot
planeLockWeightCenter planeAlignerCenter
Rear_Toe1_02 Rear_Toe1_01
Rear_Toe1_03 Rear_Toe1_02
Rear_Toe2_02 Rear_Toe2_01
Rear_Toe2_03 Rear_Toe2_02
Rear_Toe3_02 Rear_Toe3_01
Rear_Toe3_03 Rear_Toe3_02
Back_Bone Spine1
Head Spine1
Motor_Bone Back_Bone
Ping_Mechanism Back_Bone
BN_LookIK Head
bottomMouth Head
L_Mouth01 Head
L_mouthFront Head
mouthGun Head
R_Mouth01 Head
R_mouthFront Head
TopMouth Head
weapon_bone Head
[BasePosition]
#SegmentName Tx, Ty, Tz, Rx, Ry, Rz, BoneLength
Pinger_Root 0.000000 0.000000 0.000000 -90.000000 0.000000 0.000000 10.000000 
Pelvis 0.000000 0.000000 0.000000 0.000000 0.000000 0.000000 10.000000 
L_Hip 0.000000 0.000000 0.000000 0.000000 0.000000 0.000000 10.000000 
R_Hip 0.000000 0.000000 0.000000 0.000000 0.000000 0.000000 10.000000 
Rear_Leg01 0.000000 0.000000 0.000000 0.000000 0.000000 0.000000 10.000000 
Spine1 0.000000 0.000000 0.000000 0.000000 0.000000 0.000000 10.000000 
L_Leg01 0.000000 0.000000 0.000000 0.000000 0.000000 0.000000 10.000000 
L_Leg02 0.000000 0.000000 0.000000 0.000000 0.000000 0.000000 10.000000 
L_Leg03 0.000000 0.000000 0.000000 0.000000 0.000000 0.000000 10.000000 
L_Foot 0.000000 0.000000 0.000000 0.000000 0.000000 0.000000 10.000000 
L_Toe1_01 0.000000 0.000000 0.000000 0.000000 0.000000 0.000000 10.000000 
L_Toe2_01 0.000000 0.000000 0.000000 0.000000 0.000000 0.000000 10.000000 
L_Toe3_01 0.000000 0.000000 0.000000 0.000000 0.000000 0.000000 10.000000 
planeAlignerLeft 0.000000 0.000000 0.000000 0.000000 0.000000 0.000000 10.000000 
L_Toe1_02 0.000000 0.000000 0.000000 0.000000 0.000000 0.000000 10.000000 
L_Toe1_03 0.000000 0.000000 0.000000 0.000000 0.000000 0.000000 10.000000 
L_Toe2_02 0.000000 0.000000 0.000000 0.000000 0.000000 0.000000 10.000000 
L_Toe2_03 0.000000 0.000000 0.000000 0.000000 0.000000 0.000000 10.000000 
L_Toe3_02 0.000000 0.000000 0.000000 0.000000 0.000000 0.000000 10.000000 
L_Toe3_03 0.000000 0.000000 0.000000 0.000000 0.000000 0.000000 10.000000 
planeLockWeightLeft 0.000000 0.000000 0.000000 0.000000 0.000000 0.000000 10.000000 
R_Leg01 0.000000 0.000000 0.000000 0.000000 0.000000 0.000000 10.000000 
R_Leg02 0.000000 0.000000 0.000000 0.000000 0.000000 0.000000 10.000000 
R_Leg03 0.000000 0.000000 0.000000 0.000000 0.000000 0.000000 10.000000 
R_Foot 0.000000 0.000000 0.000000 0.000000 0.000000 0.000000 10.000000 
planeAlignerRight 0.000000 0.000000 0.000000 0.000000 0.000000 0.000000 10.000000 
R_Toe1_01 0.000000 0.000000 0.000000 0.000000 0.000000 0.000000 10.000000 
R_Toe2_01 0.000000 0.000000 0.000000 0.000000 0.000000 0.000000 10.000000 
R_Toe3_01 0.000000 0.000000 0.000000 0.000000 0.000000 0.000000 10.000000 
planeLockWeightRight 0.000000 0.000000 0.000000 0.000000 0.000000 0.000000 10.000000 
R_Toe1_02 0.000000 0.000000 0.000000 0.000000 0.000000 0.000000 10.000000 
R_Toe1_03 0.000000 0.000000 0.000000 0.000000 0.000000 0.000000 10.000000 
R_Toe2_02 0.000000 0.000000 0.000000 0.000000 0.000000 0.000000 10.000000 
R_Toe2_03 0.000000 0.000000 0.000000 0.000000 0.000000 0.000000 10.000000 
R_Toe3_02 0.000000 0.000000 0.000000 0.000000 0.000000 0.000000 10.000000 
R_Toe3_03 0.000000 0.000000 0.000000 0.000000 0.000000 0.000000 10.000000 
Rear_Leg02 0.000000 0.000000 0.000000 0.000000 0.000000 0.000000 10.000000 
Rear_Leg03 0.000000 0.000000 0.000000 0.000000 0.000000 0.000000 10.000000 
Rear_Leg04 0.000000 0.000000 0.000000 0.000000 0.000000 0.000000 10.000000 
Rear_Foot 0.000000 0.000000 0.000000 0.000000 0.000000 0.000000 10.000000 
planeAlignerCenter 0.000000 0.000000 0.000000 0.000000 0.000000 0.000000 10.000000 
Rear_Toe1_01 0.000000 0.000000 0.000000 0.000000 0.000000 0.000000 10.000000 
Rear_Toe2_01 0.000000 0.000000 0.000000 0.000000 0.000000 0.000000 10.000000 
Rear_Toe3_01 0.000000 0.000000 0.000000 0.000000 0.000000 0.000000 10.000000 
planeLockWeightCenter 0.000000 0.000000 0.000000 0.000000 0.000000 0.000000 10.000000 
Rear_Toe1_02 0.000000 0.000000 0.000000 0.000000 0.000000 0.000000 10.000000 
Rear_Toe1_03 0.000000 0.000000 0.000000 0.000000 0.000000 0.000000 10.000000 
Rear_Toe2_02 0.000000 0.000000 0.000000 0.000000 0.000000 0.000000 10.000000 
Rear_Toe2_03 0.000000 0.000000 0.000000 0.000000 0.000000 0.000000 10.000000 
Rear_Toe3_02 0.000000 0.000000 0.000000 0.000000 0.000000 0.000000 10.000000 
Rear_Toe3_03 0.000000 0.000000 0.000000 0.000000 0.000000 0.000000 10.000000 
Back_Bone 0.000000 0.000000 0.000000 0.000000 0.000000 0.000000 10.000000 
Head 0.000000 0.000000 0.000000 0.000000 0.000000 0.000000 10.000000 
Motor_Bone 0.000000 0.000000 0.000000 0.000000 0.000000 0.000000 10.000000 
Ping_Mechanism 0.000000 0.000000 0.000000 0.000000 0.000000 0.000000 10.000000 
BN_LookIK 0.000000 0.000000 0.000000 0.000000 0.000000 0.000000 10.000000 
bottomMouth 0.000000 0.000000 0.000000 0.000000 0.000000 0.000000 10.000000 
L_Mouth01 0.000000 0.000000 0.000000 0.000000 0.000000 0.000000 10.000000 
L_mouthFront 0.000000 0.000000 0.000000 0.000000 0.000000 0.000000 10.000000 
mouthGun 0.000000 0.000000 0.000000 0.000000 0.000000 0.000000 10.000000 
R_Mouth01 0.000000 0.000000 0.000000 0.000000 0.000000 0.000000 10.000000 
R_mouthFront 0.000000 0.000000 0.000000 0.000000 0.000000 0.000000 10.000000 
TopMouth 0.000000 0.000000 0.000000 0.000000 0.000000 0.000000 10.000000 
weapon_bone 0.000000 0.000000 0.000000 0.000000 0.000000 0.000000 10.000000 
#Beginning of Data. Separated by tabs
#Fr	Tx	Ty	Tz	Rx	Ry	Rz	SF
[Pinger_Root]
45 0.000000 5703.701660 0.000000 -0.000075 -0.000000 -0.000020 5703.701660
46 0.000000 5833.331543 0.000000 -0.000075 -0.000000 -0.000020 5833.331543
47 0.000000 5962.961426 0.000000 -0.000075 -0.000000 -0.000020 5962.961426
[Pelvis]
45 527.140076 1196.460815 4977.246582 -112.673523 -70.302246 116.924385 5146.103516
46 543.276794 1223.730225 4961.095215 -117.391281 -69.610550 119.393044 5138.592285
47 552.273560 1250.410645 4958.485840 -120.353020 -69.141548 120.066200 5143.453125
[L_Hip]
45 5.766392 125.831482 872.656799 -178.250168 -81.786369 87.376007 881.701050
46 5.766392 125.831482 872.656799 -178.250168 -81.786369 87.376007 881.701050
47 5.766392 125.831482 872.656799 -178.250168 -81.786369 87.376007 881.701050
[R_Hip]
45 5.765438 125.836372 -872.654907 -1.748770 81.786041 87.376961 881.699829
46 5.765438 125.836372 -872.654907 -1.748770 81.786041 87.376961 881.699829
47 5.765438 125.836372 -872.654907 -1.748770 81.786041 87.376961 881.699829
[Rear_Leg01]
45 -192.298416 -925.602966 -0.001907 169.973907 -15.545842 -157.195923 945.367432
46 -192.298416 -925.602966 -0.001907 171.703766 -15.636744 -154.488358 945.367432
47 -192.298416 -925.602966 -0.001907 174.031509 -14.995011 -150.055862 945.367432
[Spine1]
45 290.604584 5.007505 0.000477 -2.979208 9.305587 10.307047 290.647736
46 290.604584 5.007505 0.000477 -0.197260 9.890790 10.000170 290.647736
47 290.604584 5.007505 0.000477 2.506383 9.897075 9.912753 290.647736
[L_Leg01]
45 761.932007 -0.002384 -0.069261 34.377068 -57.529556 -23.617489 761.932068
46 761.932007 -0.002384 -0.069261 34.078739 -54.521141 -20.688181 761.932068
47 761.932007 -0.002384 -0.069261 40.719597 -48.016735 -27.374640 761.932068
[L_Leg02]
45 1441.140503 -0.000954 -0.000715 -1.182544 0.513142 -113.052025 1441.140503
46 1441.140503 -0.000954 -0.000715 -0.867247 0.380496 -116.812546 1441.140503
47 1441.140503 -0.000954 -0.000715 -0.872392 0.310573 -112.784607 1441.140503
[L_Leg03]
45 1686.963989 -0.000715 -0.000954 0.043696 -0.010159 98.226212 1686.963989
46 1686.963989 -0.000715 -0.000954 0.036553 -0.010276 100.161621 1686.963989
47 1686.963989 -0.000715 -0.000954 0.026205 -0.006712 103.877762 1686.963989
[L_Foot]
45 3041.570068 -30.715107 11.297464 -13.112936 5.678202 45.391171 3041.746094
46 3041.570068 -30.715107 11.297464 -14.700790 6.033475 47.370911 3041.746094
47 3041.570068 -30.715107 11.297464 -16.264502 6.755121 46.425682 3041.746094
[L_Toe1_01]
45 -188.216690 -224.732346 -21.137953 89.233765 -2.120257 -157.881622 293.899567
46 -188.216690 -224.732346 -21.137953 89.200928 -1.857706 -158.919846 293.899567
47 -188.216690 -224.732346 -21.137953 89.163811 -1.285969 -160.420700 293.899567
[L_Toe2_01]
45 200.746536 -219.926590 148.838394 -76.712189 -8.894067 -53.170017 332.896027
46 200.746536 -219.926590 148.838394 -76.725540 -9.394635 -52.413898 332.896027
47 200.746536 -219.926590 148.838394 -77.120529 -11.022108 -48.934078 332.896027
[L_Toe3_01]
45 188.832520 -219.859131 -191.078659 -107.229065 10.823068 -55.313011 347.140900
46 188.832520 -219.859131 -191.078659 -107.334229 11.962566 -54.413544 347.140900
47 188.832520 -219.859131 -191.078659 -107.221817 15.118653 -51.211830 347.140900
[planeAlignerLeft]
45 113.193352 -749.301819 0.039368 0.000000 -90.000000 -90.001900 757.803345
46 75.706749 -725.901428 -3.886506 0.000000 -90.000000 -90.001900 729.848938
47 -6.756857 -674.422974 -12.526952 0.000000 -90.000000 -90.001900 674.573181
[L_Toe1_02]
45 413.761139 0.000477 0.000000 0.001424 -20.961100 0.001424 413.761139
46 413.761139 0.000477 0.000000 0.001418 -21.675711 0.001418 413.761139
47 413.761139 0.000477 0.000000 0.001405 -23.337227 0.001405 413.761139
[L_Toe1_03]
45 464.317322 0.000358 -0.000089 0.043951 86.939568 0.043951 464.317322
46 464.317322 0.000358 -0.000089 0.023239 84.210228 0.023239 464.317322
47 464.317322 0.000358 -0.000089 0.010266 76.871689 0.010266 464.317322
[L_Toe2_02]
45 342.235809 -0.000477 0.000238 -0.008632 -64.891136 0.007454 342.235809
46 342.235809 -0.000477 0.000238 0.001192 -69.613335 0.001193 342.235809
47 342.235809 -0.000477 0.000238 0.001182 -76.375603 0.001182 342.235809
[L_Toe2_03]
45 420.210846 -0.000715 0.000000 -0.001414 69.250450 -0.004969 420.210846
46 420.210846 -0.000715 0.000000 0.011942 78.720680 0.011942 420.210846
47 420.210846 -0.000715 0.000000 -179.992935 82.528450 -179.989441 420.210846
[L_Toe3_02]
45 329.270111 0.000954 0.000000 -0.010873 -70.434631 0.009707 329.270111
46 329.270111 0.000954 0.000000 0.001185 -74.164803 0.001185 329.270111
47 329.270111 0.000954 0.000000 0.001178 -79.782288 0.001178 329.270111
[L_Toe3_03]
45 439.137451 -0.001907 0.000954 -0.002458 74.355110 -0.005988 439.137451
46 439.137451 -0.001907 0.000954 0.017870 82.468941 0.017870 439.137451
47 439.137451 -0.001907 0.000954 -179.994156 81.323418 -179.990646 439.137451
[planeLockWeightLeft]
45 999.999695 0.098211 0.076367 -0.011826 -0.004376 0.005620 999.999695
46 999.999634 0.098156 0.076344 -0.011826 -0.004376 0.005620 999.999634
47 999.999634 0.098100 0.076322 -0.011826 -0.004376 0.005620 999.999634
[R_Leg01]
45 761.455627 -0.001907 -0.000358 131.300934 -36.605595 69.966698 761.455688
46 761.455627 -0.001907 -0.000358 126.385536 -34.659241 75.830719 761.455688
47 761.455627 -0.001907 -0.000358 121.114952 -32.559814 80.681450 761.455688
[R_Leg02]
45 1441.140625 0.000000 -0.000238 0.114019 -0.053604 -117.634819 1441.140625
46 1441.140625 0.000000 -0.000238 0.147786 -0.048229 -113.727150 1441.140625
47 1441.140625 0.000000 -0.000238 0.181842 -0.045167 -109.819420 1441.140625
[R_Leg03]
45 1686.963989 0.000954 0.001431 -0.031786 0.010149 101.202370 1686.963989
46 1686.963989 0.000954 0.001431 -0.031801 0.010102 101.032562 1686.963989
47 1686.963989 0.000954 0.001431 -0.031816 0.010055 100.862740 1686.963989
[R_Foot]
45 3041.560059 -30.531288 -11.204481 7.901859 -5.498043 77.666542 3041.734131
46 3041.560059 -30.531288 -11.204481 7.958253 -5.898164 77.885437 3041.734131
47 3041.560059 -30.531288 -11.204481 7.985895 -6.950649 78.039230 3041.734131
[planeAlignerRight]
45 -0.621321 -812.125610 -0.358308 0.000000 -89.960434 -90.005180 812.125916
46 -0.630493 -807.691895 -0.351334 0.000000 -89.960434 -90.005180 807.692200
47 -0.621948 -795.817261 -0.352745 0.000000 -89.960434 -90.005180 795.817566
[R_Toe1_01]
45 -188.383347 -224.864899 21.052242 91.051651 1.810645 -149.175339 294.101532
46 -188.383347 -224.864899 21.052242 91.047394 1.820987 -149.574158 294.101532
47 -188.383347 -224.864899 21.052242 91.013489 1.838573 -150.613525 294.101532
[R_Toe2_01]
45 200.637817 -220.002121 -148.787384 -104.750443 9.282321 -58.579277 332.857574
46 200.637817 -220.002121 -148.787384 -104.685509 9.362267 -58.297127 332.857574
47 200.637817 -220.002121 -148.787384 -104.535698 9.599878 -57.379124 332.857574
[R_Toe3_01]
45 188.606735 -220.092957 191.126343 -70.890556 -11.286277 -60.530907 347.192566
46 188.606735 -220.092957 191.126343 -70.956413 -11.385157 -60.242100 347.192566
47 188.606735 -220.092957 191.126343 -71.143463 -11.699906 -59.307114 347.192566
[planeLockWeightRight]
45 999.999451 0.000000 0.076211 -0.011823 -0.004379 -0.000027 999.999451
46 999.999451 0.000000 0.076221 -0.011823 -0.004379 -0.000027 999.999451
47 999.999451 0.000000 0.076230 -0.011823 -0.004379 -0.000027 999.999451
[R_Toe1_02]
45 413.762085 0.000477 -0.000119 0.001388 -25.434608 0.001388 413.762085
46 413.762085 0.000477 -0.000119 0.001390 -25.224380 0.001390 413.762085
47 413.762085 0.000477 -0.000119 0.001391 -25.014151 0.001391 413.762085
[R_Toe1_03]
45 464.317810 0.000000 0.001088 0.005169 63.755848 0.005169 464.317810
46 464.317810 0.000000 0.001088 0.005279 64.309937 0.005279 464.317810
47 464.317810 0.000000 0.001088 0.005591 65.764526 0.005591 464.317810
[R_Toe2_02]
45 342.234741 -0.000954 0.000238 0.001191 -70.126205 0.001191 342.234741
46 342.234741 -0.000954 0.000238 0.001191 -70.368065 0.001191 342.234741
47 342.234741 -0.000954 0.000238 0.001190 -71.187180 0.001190 342.234741
[R_Toe2_03]
45 420.210846 0.000715 -0.000268 0.013252 79.838326 0.013252 420.210846
46 420.210846 0.000715 -0.000268 0.014064 80.426369 0.014064 420.210846
47 420.210846 0.000715 -0.000268 0.016789 81.983200 0.016789 420.210846
[R_Toe3_02]
45 329.270355 -0.000477 -0.000954 0.001184 -74.661621 0.001184 329.270355
46 329.270355 -0.000477 -0.000954 0.001184 -75.038849 0.001184 329.270355
47 329.270355 -0.000477 -0.000954 0.001183 -75.416084 0.001183 329.270355
[R_Toe3_03]
45 439.137939 0.000238 0.001431 -0.012109 83.638290 -0.008607 439.137939
46 439.137939 0.000238 0.001431 -0.013066 84.176910 -0.009564 439.137939
47 439.137939 0.000238 0.001431 -0.016737 85.604439 -0.013238 439.137939
[Rear_Leg02]
45 1162.777710 -0.029802 0.005960 -3.496294 -4.518407 -51.698078 1162.777710
46 1162.777710 -0.029802 0.005960 -4.850551 -11.115576 -63.175991 1162.777710
47 1162.777710 -0.029802 0.005960 -5.106155 -21.991339 -68.033272 1162.777710
[Rear_Leg03]
45 607.192505 -0.013351 -0.073195 0.003915 0.005572 41.967979 607.192505
46 607.192505 -0.013351 -0.073195 0.008765 0.003229 49.554276 607.192505
47 607.192505 -0.013351 -0.073195 0.006628 -0.001565 54.780453 607.192505
[Rear_Leg04]
45 995.874512 -0.020504 -0.011921 -0.030954 -0.012458 21.941071 995.874573
46 995.874512 -0.020504 -0.011921 -0.033397 -0.014201 32.853897 995.874573
47 995.874512 -0.020504 -0.011921 -0.036073 -0.016391 41.126785 995.874573
[Rear_Foot]
45 3096.176270 -0.067472 -0.041425 -162.748199 74.926262 44.543411 3096.176270
46 3096.176270 -0.067472 -0.041425 -148.037003 70.414246 47.783218 3096.176270
47 3096.176270 -0.067472 -0.041425 -130.677551 62.340263 52.696594 3096.176270
[planeAlignerCenter]
45 1.028194 117.155746 -813.781921 0.000009 0.000003 -179.999985 822.172424
46 -2.396635 124.841949 -805.175476 0.000009 0.000003 -179.999985 814.799866
47 -6.167807 130.128616 -787.835999 0.000009 0.000003 -179.999985 798.534363
[Rear_Toe1_01]
45 0.653352 83.966492 -371.173737 0.057705 30.884996 90.029312 380.553192
46 0.653352 83.966492 -371.173737 -0.123376 36.947273 89.678474 380.553192
47 0.653352 83.966492 -371.173737 -0.840230 50.864807 88.756958 380.553192
[Rear_Toe2_01]
45 178.200760 -294.826019 -362.060547 2.113177 54.542580 -68.317688 499.765686
46 178.200760 -294.826019 -362.060547 1.997398 53.885075 -68.434853 499.765686
47 178.200760 -294.826019 -362.060547 1.788117 52.423260 -68.683235 499.765686
[Rear_Toe3_01]
45 -153.359680 -308.780914 -362.060852 -2.497677 54.515892 -114.344528 499.952881
46 -153.359680 -308.780914 -362.060852 -2.375909 53.872272 -114.210777 499.952881
47 -153.359680 -308.780914 -362.060852 -2.144389 52.413696 -113.937744 499.952881
[planeLockWeightCenter]
45 1000.000244 0.000305 0.076284 -0.011814 -0.004373 -0.000015 1000.000244
46 843.752502 0.000305 0.076256 -0.011814 -0.004373 -0.000015 843.752502
47 500.005371 0.000076 0.076275 -0.011814 -0.004373 -0.000015 500.005371
[Rear_Toe1_02]
45 379.707825 0.194073 0.000477 -0.000767 -33.624729 0.000838 379.707855
46 379.707825 0.194073 0.000477 -0.000767 -33.624729 0.000838 379.707855
47 379.707825 0.194073 0.000477 -0.000767 -33.624729 0.000838 379.707855
[Rear_Toe1_03]
45 500.129700 0.165701 0.000119 -0.000027 52.640671 0.007355 500.129761
46 500.129700 0.165701 0.000119 -0.003867 57.363590 -0.000224 500.129761
47 500.129700 0.165701 0.000119 -0.001756 54.941532 0.003745 500.129761
[Rear_Toe2_02]
45 340.494507 0.000238 -0.000954 0.001175 -83.580727 0.001175 340.494507
46 340.494507 0.000238 -0.000954 0.001175 -83.963104 0.001175 340.494507
47 340.494507 0.000238 -0.000954 0.001175 -84.345322 0.001175 340.494507
[Rear_Toe2_03]
45 433.103577 0.000000 0.000238 179.974884 84.644234 179.974884 433.103546
46 433.103577 0.000000 0.000238 179.977417 84.043724 179.977417 433.103546
47 433.103577 0.000000 0.000238 179.981247 82.823730 179.981247 433.103546
[Rear_Toe3_02]
45 340.494141 -0.000358 -0.000477 0.001176 -83.434845 0.001176 340.494171
46 340.494141 -0.000358 -0.000477 0.001175 -83.820793 0.001175 340.494171
47 340.494141 -0.000358 -0.000477 0.001175 -84.206642 0.001175 340.494171
[Rear_Toe3_03]
45 433.103577 0.001431 -0.000238 -179.988647 84.972427 -179.985138 433.103546
46 433.103577 0.001431 -0.000238 -179.990051 84.370331 -179.986557 433.103546
47 433.103577 0.001431 -0.000238 -179.992157 83.137558 -179.988647 433.103546
[Back_Bone]
45 1312.175781 -701.934692 0.000954 0.092866 3.184185 -80.995880 1488.125488
46 1312.175781 -701.934692 0.000954 -0.222050 3.190005 -82.812607 1488.125488
47 1312.175781 -701.934692 0.000954 -0.536994 3.185853 -84.629364 1488.125488
[Head]
45 1406.159424 809.709290 0.001431 1.883409 1.389406 4.929903 1622.625488
46 1406.159424 809.709290 0.001431 1.539149 1.561085 4.919655 1622.625488
47 1406.159424 809.709290 0.001431 1.194833 1.732695 4.908373 1622.625488
[Motor_Bone]
45 1158.364380 -417.834747 0.000477 -2.064749 -0.819210 -106.806320 1231.419434
46 1158.364380 -417.834747 0.000477 -1.940205 -0.666372 -106.653244 1231.419434
47 1158.364380 -417.834747 0.000477 -1.815256 -0.513867 -106.499825 1231.419434
[Ping_Mechanism]
45 1296.872192 -471.084625 -42.701530 0.000103 -0.000053 82.120995 1380.442505
46 1300.005493 -467.597107 -45.825684 0.000103 -0.000053 82.120995 1382.302856
47 1303.138672 -464.109528 -48.949841 0.000103 -0.000053 82.120995 1384.183594
[BN_LookIK]
45 193.241119 1380.371704 -0.002861 0.000000 89.965736 -31.038179 1393.832153
46 193.241119 1380.371704 -0.002861 0.000000 89.965736 -31.038179 1393.832153
47 193.241119 1380.371704 -0.002861 0.000000 89.965736 -31.038179 1393.832153
[bottomMouth]
45 -435.092926 615.759399 -0.000954 -0.000022 0.000016 73.527184 753.966492
46 -435.092926 615.759399 -0.000954 -0.000022 0.000016 73.527184 753.966492
47 -435.092926 615.759399 -0.000954 -0.000022 0.000016 73.527184 753.966492
[L_Mouth01]
45 554.440979 7.658243 838.222046 150.204178 23.759130 109.605339 1005.027161
46 554.440979 7.658243 838.222046 150.204178 23.759130 109.605339 1005.027161
47 554.440979 7.658243 838.222046 150.204178 23.759130 109.605339 1005.027161
[L_mouthFront]
45 551.629089 934.514771 339.150421 0.000081 2.804060 79.119301 1136.941284
46 551.629089 934.514771 339.150421 0.000081 2.804060 79.119301 1136.941284
47 551.629089 934.514771 339.150421 0.000081 2.804060 79.119301 1136.941284
[mouthGun]
45 55.332661 1627.420898 0.000000 0.000023 0.000009 -11.038128 1628.361328
46 55.332661 1627.420898 0.000000 0.000023 0.000009 -11.038128 1628.361328
47 55.332661 1627.420898 0.000000 0.000023 0.000009 -11.038128 1628.361328
[R_Mouth01]
45 554.442383 7.659197 -838.223938 29.795891 -23.759109 109.605331 1005.029541
46 554.442383 7.659197 -838.223938 29.795891 -23.759109 109.605331 1005.029541
47 554.442383 7.659197 -838.223938 29.795891 -23.759109 109.605331 1005.029541
[R_mouthFront]
45 551.629089 934.514282 -339.151367 0.000029 -2.803930 79.119133 1136.941162
46 551.629089 934.514282 -339.151367 0.000029 -2.803930 79.119133 1136.941162
47 551.629089 934.514282 -339.151367 0.000029 -2.803930 79.119133 1136.941162
[TopMouth]
45 461.269867 -56.106091 -0.008583 -0.000059 -0.000268 92.025169 464.669525
46 461.269867 -56.106091 -0.008583 -0.000059 -0.000268 92.025169 464.669525
47 461.269867 -56.106091 -0.008583 -0.000059 -0.000268 92.025169 464.669525
[weapon_bone]
45 -987.239868 1448.372803 0.001431 0.000000 89.965736 -31.038221 1752.833740
46 -987.239868 1448.372803 0.001431 0.000000 89.965736 -31.038221 1752.833740
47 -987.239868 1448.372803 0.001431 0.000000 89.965736 -31.038221 1752.833740
